<svg xmlns="http://www.w3.org/2000/svg" viewBox="0 0 256 256">
  <circle cx="128" cy="128" r="128" fill="#E60023"/>
  <path d="M108.6 195.8c-5.4-0.5-7.7-3.1-11.9-5.7-2.3 12.2-5.2 23.9-13.6 30-2.6-18.5 3.8-32.4 6.8-47.2-5.1-8.6-0.6-25.8 7.6-21.5 10 5.3-1.7 32.4 7.6 35.8 9.7 3.5 26.5-15.2 23.5-38.3-2.2-16.7-16-25.8-34.5-25.1-25 1-38.5 18.2-36.4 37.3 0.5 4.7 3.9 10.3 1.4 14.4-5.7 1.5-7.9-2.2-10.2-7.9-3.8-14.3 1.3-29.4 12.4-38.3 15.3-12.2 42.6-14.1 59.8-5.3 21.8 11.1 25.9 38.7 14.3 56.9-13 20.4-41.4 26.5-55.8 14.9z" fill="#FFF"/>
</svg>
